<?xml version="1.0" encoding="UTF-8"?>
<svg version="1.1" fill="#bdbdbd" xmlns="http://www.w3.org/2000/svg" width="564" height="376">
<path d="M0 0 C0.70511719 0.53109375 1.41023438 1.0621875 2.13671875 1.609375 C11.38652836 9.00922269 17.61148368 20.42845006 20 32 C20.03888349 34.33300933 20.0448635 36.66709801 20 39 C20.96486328 38.89171875 20.96486328 38.89171875 21.94921875 38.78125 C58.89643374 34.98638626 94.10637863 45.33323356 124 67 C125.51207031 67.96679688 125.51207031 67.96679688 127.0546875 68.953125 C130.1019321 71.07083875 132.43679922 73.32046635 135 76 C136.18037051 77.16343549 137.36421384 78.32335403 138.55078125 79.48046875 C139.80476385 80.71606836 141.05866883 81.95174673 142.3125 83.1875 C142.95767578 83.81591797 143.60285156 84.44433594 144.26757812 85.09179688 C145.18120117 85.99575195 145.18120117 85.99575195 146.11328125 86.91796875 C146.94533081 87.73430786 146.94533081 87.73430786 147.79418945 88.56713867 C149 90 149 90 149 92 C149.66 92 150.32 92 151 92 C151.91295973 93.29921192 152.81104254 94.61030954 153.65234375 95.95703125 C156.00136261 99.51800767 158.68180412 102.84700495 161.29296875 106.21875 C163.17031145 109.27748685 163.75627992 111.4368124 164 115 C162.72046882 118.83859354 161.60173282 120.56619262 158.3125 122.9375 C154.16393723 124.26817108 151.14308295 124.3637648 147 123 C142.39773183 119.63248671 139.91866023 114.71641005 136.98046875 109.9296875 C134.26675304 105.91531515 131.06937645 102.4880806 127.72265625 98.99609375 C126 97 126 97 126 95 C125.34 95 124.68 95 124 95 C122.82992199 93.86433605 121.66596441 92.72178013 120.53125 91.55078125 C99.55709815 70.30910196 68.61896488 59.6617018 39.23193359 59.00244141 C32.80732618 58.99541383 26.39997593 59.47935114 20 60 C19.90525391 61.2065625 19.90525391 61.2065625 19.80859375 62.4375 C16.65830871 92.6802364 2.56138841 129.61135703 -20 151 C-20.99 151.33 -21.98 151.66 -23 152 C-23 152.66 -23 153.32 -23 154 C-25.15812922 155.5774398 -27.30252261 157.02014842 -29.5625 158.4375 C-30.17158203 158.83259766 -30.78066406 159.22769531 -31.40820312 159.63476562 C-39.82063595 164.98489486 -47.92858394 167.91707203 -58 167 C-68.90171615 164.55744086 -75.97388628 158.08090728 -82.328125 149.12890625 C-87.89927507 139.46254513 -87.75947764 127.65524306 -85.23828125 117.09375 C-82.06093426 105.70666294 -75.84520419 95.7397041 -68 87 C-67.19691406 86.06671875 -66.39382812 85.1334375 -65.56640625 84.171875 C-61.05635003 79.00515459 -61.05635003 79.00515459 -59 77 C-58.34 77 -57.68 77 -57 77 C-56.67 76.01 -56.34 75.02 -56 74 C-54.11767296 72.33372622 -52.25600117 70.81548925 -50.25 69.3125 C-49.66871338 68.87260742 -49.08742676 68.43271484 -48.48852539 67.97949219 C-36.47329989 59.02754236 -23.48592147 51.9712083 -9.5 46.625 C-8.81703857 46.36187012 -8.13407715 46.09874023 -7.43041992 45.82763672 C-4.03837368 44.57213634 -1.66960724 44 2 44 C0.87339951 33.2720729 -1.49782674 22.44701095 -10 15 C-13.55097872 12.45559792 -17.22306237 10.1920207 -21 8 C-21.64839844 7.6184375 -22.29679687 7.236875 -22.96484375 6.84375 C-55.95619799 -11.05965449 -98.15821098 -4.86153313 -132.47216797 4.94921875 C-168.21508088 15.59541233 -202.96958297 32.31002608 -232.23535156 55.60449219 C-233.99088518 56.99279188 -235.76811375 58.34727034 -237.5546875 59.6953125 C-247.86945741 67.53396578 -257.42645827 76.21584301 -266.4375 85.5234375 C-266.97681152 86.07781494 -267.51612305 86.63219238 -268.07177734 87.20336914 C-269.07710258 88.24488103 -270.07295365 89.29565764 -271.05712891 90.35717773 C-273.87996368 93.29530281 -275.87167433 94.80702317 -280 95 C-282.8125 93.9375 -282.8125 93.9375 -285 92 C-285.5625 89.125 -285.5625 89.125 -285 86 C-283.1875 83.3125 -283.1875 83.3125 -281 81 C-280.46375 80.401875 -279.9275 79.80375 -279.375 79.1875 C-278 78 -278 78 -276 78 C-275.73832031 77.40058594 -275.47664063 76.80117187 -275.20703125 76.18359375 C-273.92779812 73.86938236 -272.73749558 72.70340555 -270.6875 71.0625 C-267.05989272 68.07065894 -263.76732728 64.8561612 -260.5234375 61.44921875 C-255.39281817 56.16054717 -249.78488364 51.55141532 -244 47 C-243.36739258 46.50161621 -242.73478516 46.00323242 -242.08300781 45.48974609 C-221.78490432 29.57033048 -200.31433453 16.08297594 -177 5 C-176.26265625 4.64196289 -175.5253125 4.28392578 -174.765625 3.91503906 C-125.14014468 -20.08587487 -47.79959927 -38.23967941 0 0 Z M-48.359375 94.29296875 C-59.04884574 105.25125754 -66.4064195 116.30880695 -66.28515625 131.7265625 C-65.81827956 137.0860511 -64.14118016 141.05757918 -60.1484375 144.6796875 C-56.26070051 147.0688786 -52.40221472 146.64701139 -48 146 C-32.13760734 141.1381521 -23.28248954 125.1950693 -15.93286133 111.43164062 C-8.44992655 96.9099384 -2.64445702 81.1422064 0 65 C-16.48131997 65 -37.24187392 83.95369274 -48.359375 94.29296875 Z "  transform="translate(320,97)"/>
<path d="M0 0 C3.69096829 1.27616191 4.52669024 3.09082725 6.55859375 6.40625 C6.9335498 7.015896 7.30850586 7.62554199 7.69482422 8.25366211 C9.03040362 10.45633176 10.32906276 12.67775567 11.62109375 14.90625 C12.12817871 15.77910645 12.63526367 16.65196289 13.15771484 17.55126953 C25.69921943 39.28962722 37.32122468 61.54024355 47.93359375 84.28125 C48.47894775 85.44567627 49.02430176 86.61010254 49.58618164 87.80981445 C56.16473713 102.0941054 56.16473713 102.0941054 54.49609375 107.65625 C52.63438116 110.88321849 51.77980125 112.10098848 48.62109375 113.90625 C45.47436523 114.29443359 45.47436523 114.29443359 41.7421875 114.3046875 C40.72873512 114.31096413 40.72873512 114.31096413 39.69480896 114.31736755 C37.48227475 114.32368615 35.27100154 114.30467508 33.05859375 114.28125 C31.91937469 114.27476944 31.91937469 114.27476944 30.75714111 114.26815796 C4.5418598 114.0937014 -21.57072287 110.8389843 -46.62890625 102.90625 C-47.36181885 102.68155029 -48.09473145 102.45685059 -48.84985352 102.2253418 C-53.37985893 100.68757399 -55.85314359 98.98191248 -58.37890625 94.90625 C-59.06406715 90.88092973 -58.56747387 89.24437124 -56.56640625 85.65625 C-54.37890625 82.90625 -54.37890625 82.90625 -51.37890625 80.90625 C-45.36540475 80.46843619 -40.49002751 81.46248929 -34.75390625 83.15625 C-14.95272106 88.63812174 6.00751304 92.31852161 26.62109375 91.90625 C26.33613037 91.33221436 26.05116699 90.75817871 25.75756836 90.16674805 C16.62267794 71.67107971 8.40301658 52.84481334 0.42816162 33.82635498 C-0.31767603 32.05192357 -1.06946255 30.27999576 -1.82177734 28.50830078 C-3.00033452 25.72973046 -4.16246742 22.94511474 -5.31640625 20.15625 C-5.80222168 19.01579224 -5.80222168 19.01579224 -6.29785156 17.85229492 C-8.10170732 13.40165535 -8.86015206 9.79180871 -8.37890625 4.90625 C-5.96143895 1.84412475 -4.02047473 -0.15844235 0 0 Z "  transform="translate(474.37890625,151.09375)"/>
</svg>
